<svg width="40" height="32" viewBox="0 0 40 32" fill="none" xmlns="http://www.w3.org/2000/svg">
<path d="M20.0008 18.5867L13.9428 12.1707C13.893 12.1167 13.8325 12.0736 13.7652 12.0441C13.6979 12.0147 13.6253 11.9995 13.5518 11.9995C13.4784 11.9995 13.4057 12.0147 13.3384 12.0441C13.2711 12.0736 13.2106 12.1167 13.1608 12.1707C13.0574 12.2835 13 12.4311 13 12.5842C13 12.7373 13.0574 12.8848 13.1608 12.9977L19.6078 19.8287C19.6577 19.8827 19.7183 19.9258 19.7856 19.9553C19.853 19.9848 19.9258 20 19.9993 20C20.0728 20 20.1456 19.9848 20.213 19.9553C20.2804 19.9258 20.3409 19.8827 20.3908 19.8287L26.8378 12.9977C26.9417 12.885 26.9994 12.7374 26.9994 12.5842C26.9994 12.4309 26.9417 12.2833 26.8378 12.1707C26.788 12.1167 26.7275 12.0736 26.6602 12.0441C26.593 12.0147 26.5203 11.9995 26.4468 11.9995C26.3733 11.9995 26.3007 12.0147 26.2334 12.0441C26.1661 12.0736 26.1056 12.1167 26.0558 12.1707L20.0008 18.5867Z" fill="#808080" stroke="#808080" stroke-width="0.7"/>
</svg>
