<svg width="40" height="32" viewBox="0 0 40 32" fill="none" xmlns="http://www.w3.org/2000/svg">
<path d="M19.9992 13.4133L26.0572 19.8293C26.107 19.8833 26.1675 19.9264 26.2348 19.9559C26.3021 19.9853 26.3747 20.0005 26.4482 20.0005C26.5216 20.0005 26.5943 19.9853 26.6616 19.9559C26.7289 19.9264 26.7894 19.8833 26.8392 19.8293C26.9426 19.7165 27 19.5689 27 19.4158C27 19.2627 26.9426 19.1152 26.8392 19.0023L20.3922 12.1713C20.3423 12.1173 20.2817 12.0742 20.2144 12.0447C20.147 12.0152 20.0742 12 20.0007 12C19.9272 12 19.8544 12.0152 19.787 12.0447C19.7196 12.0742 19.6591 12.1173 19.6092 12.1713L13.1622 19.0023C13.0583 19.115 13.0006 19.2626 13.0006 19.4158C13.0006 19.5691 13.0583 19.7167 13.1622 19.8293C13.212 19.8833 13.2725 19.9264 13.3398 19.9559C13.407 19.9853 13.4797 20.0005 13.5532 20.0005C13.6267 20.0005 13.6993 19.9853 13.7666 19.9559C13.8339 19.9264 13.8944 19.8833 13.9442 19.8293L19.9992 13.4133Z" fill="#808080" stroke="#808080" stroke-width="0.7"/>
</svg>
