<svg width="32" height="40" viewBox="0 0 32 40" fill="none" xmlns="http://www.w3.org/2000/svg">
<path d="M13.4133 20.0008L19.8293 13.9428C19.8833 13.893 19.9264 13.8325 19.9559 13.7652C19.9853 13.6979 20.0005 13.6253 20.0005 13.5518C20.0005 13.4784 19.9853 13.4057 19.9559 13.3384C19.9264 13.2711 19.8833 13.2106 19.8293 13.1608C19.7165 13.0574 19.5689 13 19.4158 13C19.2627 13 19.1152 13.0574 19.0023 13.1608L12.1713 19.6078C12.1173 19.6577 12.0742 19.7183 12.0447 19.7856C12.0152 19.853 12 19.9258 12 19.9993C12 20.0728 12.0152 20.1456 12.0447 20.213C12.0742 20.2804 12.1173 20.3409 12.1713 20.3908L19.0023 26.8378C19.115 26.9417 19.2626 26.9994 19.4158 26.9994C19.5691 26.9994 19.7167 26.9417 19.8293 26.8378C19.8833 26.788 19.9264 26.7275 19.9559 26.6602C19.9853 26.593 20.0005 26.5203 20.0005 26.4468C20.0005 26.3733 19.9853 26.3007 19.9559 26.2334C19.9264 26.1661 19.8833 26.1056 19.8293 26.0558L13.4133 20.0008Z" fill="white" stroke="white" stroke-width="0.7"/>
</svg>
