<svg width="18" height="17" viewBox="0 0 18 17" fill="none" xmlns="http://www.w3.org/2000/svg">
<g id="Layer_1" clip-path="url(#clip0_259_21697)">
<g id="HTZJms.tif">
<g id="Group">
<path id="Vector" d="M17.2977 8.3152C17.2977 9.1808 17.3107 10.0464 17.2951 10.9095C17.2821 11.5875 17.2275 12.2579 16.9881 12.9084C16.7045 13.6814 16.2596 14.3494 15.6456 14.9098C14.9171 15.5752 14.0507 15.998 13.0672 16.1807C12.6587 16.2557 12.2398 16.2907 11.8235 16.2932C9.95284 16.3057 8.08474 16.3032 6.21404 16.2932C5.45432 16.2907 4.69979 16.2082 3.98429 15.9355C3.34425 15.6903 2.76925 15.3426 2.27231 14.8798C1.47875 14.1417 0.9688 13.2486 0.768461 12.2054C0.690407 11.7976 0.656583 11.3773 0.65138 10.962C0.638371 9.19081 0.635769 7.41707 0.65138 5.64584C0.656583 4.95286 0.726832 4.26238 0.984411 3.60443C1.33305 2.71631 1.88203 1.97079 2.65997 1.38288C3.53939 0.724926 4.53588 0.362175 5.65205 0.324648C6.43259 0.299631 7.21314 0.294628 7.99108 0.292126C9.23214 0.287122 10.4732 0.277115 11.7143 0.297129C12.3673 0.307136 13.0178 0.359673 13.6526 0.55731C14.454 0.807484 15.1512 1.21026 15.7419 1.77566C16.5016 2.49866 16.9829 3.37677 17.1755 4.38497C17.2561 4.80776 17.2821 5.24557 17.2899 5.67587C17.3055 6.55648 17.2951 7.43709 17.2951 8.3177L17.2977 8.3152ZM15.7367 8.3227C15.7367 7.35453 15.7393 6.38386 15.7367 5.41568C15.7367 5.17051 15.7289 4.92284 15.6846 4.68518C15.3672 2.9915 13.879 1.79567 12.0863 1.79317C10.0101 1.79067 7.93644 1.79317 5.8602 1.79317C5.65465 1.79317 5.44651 1.80568 5.24617 1.8382C3.48475 2.1259 2.21246 3.57441 2.20986 5.2906C2.20986 7.30199 2.20986 9.31339 2.20986 11.3248C2.20986 11.5174 2.22547 11.7101 2.2593 11.9002C2.5559 13.5713 4.06755 14.7947 5.83678 14.7997C7.8792 14.8047 9.92162 14.8047 11.9666 14.7997C12.2684 14.7997 12.5781 14.7872 12.8721 14.7246C14.5632 14.3719 15.7393 12.9559 15.7393 11.2948C15.7393 10.3041 15.7393 9.31589 15.7393 8.3252L15.7367 8.3227Z" fill="white"/>
<path id="Vector_2" d="M8.94356 12.2762C6.58632 12.2511 4.76766 10.3723 4.83791 8.17582C4.90555 6.01431 6.76845 4.29312 9.01641 4.32064C11.3476 4.34816 13.1403 6.18693 13.1064 8.35594C13.0726 10.585 11.1551 12.2912 8.94356 12.2762ZM11.574 8.31091C11.574 6.90744 10.4344 5.79666 8.99559 5.79416C7.52557 5.79416 6.37297 6.88492 6.37037 8.28339C6.37037 9.69437 7.50736 10.7976 8.96697 10.7976C10.424 10.7976 11.574 9.70188 11.574 8.31091Z" fill="white"/>
<path id="Vector_3" d="M12.9023 3.99304C12.9023 3.70284 13.1417 3.47017 13.4513 3.47268C13.7453 3.47268 13.9899 3.70534 13.9951 3.98803C14.0003 4.27824 13.7557 4.5159 13.4513 4.5184C13.1417 4.5184 12.9049 4.29575 12.9023 3.99554V3.99304Z" fill="white"/>
</g>
</g>
</g>
<defs>
<clipPath id="clip0_259_21697">
<rect width="16.662" height="16.0211" fill="white" transform="translate(0.640625 0.28125)"/>
</clipPath>
</defs>
</svg>
