<svg width="41" height="41" viewBox="0 0 41 41" fill="none" xmlns="http://www.w3.org/2000/svg">
<g id="Vector" filter="url(#filter0_d_287_3918)">
<path d="M8.01662 11.5388C8.35139 18.9716 14.7252 25.1189 21.9735 24.9983C26.4158 24.9235 30.3202 22.7014 32.7764 19.3183C33.4215 18.4314 32.5658 17.2168 31.5427 17.5655C31.0518 17.7322 30.591 17.8682 30.2412 17.9314C29.9873 17.9774 29.7315 18.0195 29.4739 18.0521C29.3347 18.0693 29.1974 18.0808 29.0582 18.0961C28.7912 18.123 28.5241 18.1459 28.2552 18.1574C28.1856 18.1613 28.116 18.1613 28.0464 18.1632C27.7154 18.1728 27.3806 18.1728 27.0477 18.1593C26.9349 18.1555 26.822 18.1479 26.7036 18.144C26.508 18.1364 26.3142 18.1172 26.1205 18.0904C26.019 18.077 25.9174 18.077 25.8159 18.0636C17.9563 17.1326 13.1755 10.4354 14.2644 2.56779C14.2738 2.50074 14.287 2.4337 14.2964 2.36473C14.3453 2.02566 14.4055 1.7 14.4713 1.38966C14.7007 0.324554 13.4726 -0.437878 12.6752 0.28241C9.65285 3.00839 7.81538 7.06959 8.01474 11.5369" fill="white"/>
</g>
<defs>
<filter id="filter0_d_287_3918" x="0" y="0" width="41" height="41" filterUnits="userSpaceOnUse" color-interpolation-filters="sRGB">
<feFlood flood-opacity="0" result="BackgroundImageFix"/>
<feColorMatrix in="SourceAlpha" type="matrix" values="0 0 0 0 0 0 0 0 0 0 0 0 0 0 0 0 0 0 127 0" result="hardAlpha"/>
<feOffset dy="8"/>
<feGaussianBlur stdDeviation="4"/>
<feComposite in2="hardAlpha" operator="out"/>
<feColorMatrix type="matrix" values="0 0 0 0 0 0 0 0 0 0 0 0 0 0 0 0 0 0 0.5 0"/>
<feBlend mode="normal" in2="BackgroundImageFix" result="effect1_dropShadow_287_3918"/>
<feBlend mode="normal" in="SourceGraphic" in2="effect1_dropShadow_287_3918" result="shape"/>
</filter>
</defs>
</svg>
